<svg xmlns="http://www.w3.org/2000/svg" width="605" height="188" viewBox="0 0 605 188">
  <defs>
    <style>
      .cls-1 {
        fill: #ffffff;
      }

      .cls-2 {
        fill: #1db6c5;
      }
    </style>
  </defs>
  <path id="Uniaro" class="cls-1" d="M271.334,145.506a28.374,28.374,0,0,0,13.248-11.584q4.608-7.743,4.608-19.264V60h-19.2v54.144q0,9.474-5.056,14.528t-14.4,5.056q-9.345,0-14.336-5.056t-4.992-14.528V60h-19.2v54.656q0,11.52,4.608,19.264a28.374,28.374,0,0,0,13.248,11.584q8.64,3.84,20.672,3.84Q262.693,149.346,271.334,145.506Zm53.182,2.3v-39.3a15.941,15.941,0,0,1,1.792-7.68,13.422,13.422,0,0,1,4.992-5.248,13.657,13.657,0,0,1,7.168-1.92,17.246,17.246,0,0,1,4.864.64,8.446,8.446,0,0,1,3.648,2.112,9.548,9.548,0,0,1,2.24,3.712,16.891,16.891,0,0,1,.768,5.44v42.24H367.78V102.754q0-8.448-2.752-13.7a17.084,17.084,0,0,0-7.744-7.68,26.327,26.327,0,0,0-11.648-2.432,29.948,29.948,0,0,0-8.96,1.28A24.358,24.358,0,0,0,323.748,89.7h-0.9l-1.408-9.216h-14.72V147.81h17.792Zm77.055-77.184V55.266H383.779v15.36h17.792Zm0,77.184V80.482H383.779V147.81h17.792Zm43.712,0.384a25.9,25.9,0,0,0,7.3-3.2,22.82,22.82,0,0,0,5.312-4.736h0.9a10.887,10.887,0,0,0,2.688,4.8,12.88,12.88,0,0,0,4.8,3.072,18.6,18.6,0,0,0,6.592,1.088,26.17,26.17,0,0,0,6.528-.7,21.871,21.871,0,0,0,3.968-1.344V135.522h-4.224a4.656,4.656,0,0,1-3.008-1.088,4.105,4.105,0,0,1-1.344-3.392V100.45a19.942,19.942,0,0,0-3.392-11.9,20.707,20.707,0,0,0-9.728-7.168,44.056,44.056,0,0,0-15.68-2.432,45.742,45.742,0,0,0-15.232,2.3,22.617,22.617,0,0,0-10.112,6.592,15.364,15.364,0,0,0-3.584,10.176V99.49a6.151,6.151,0,0,0,.128,1.216h17.28V99.17a6.125,6.125,0,0,1,1.088-3.52,7.712,7.712,0,0,1,3.712-2.624A19.152,19.152,0,0,1,446.115,92a14.035,14.035,0,0,1,6.592,1.28,7.242,7.242,0,0,1,3.328,3.456,12.609,12.609,0,0,1,.96,5.12v4.992a137.81,137.81,0,0,0-17.536,1.024,47.012,47.012,0,0,0-13.632,3.648,19.091,19.091,0,0,0-11.84,18.88,19.644,19.644,0,0,0,2.112,9.664,15.076,15.076,0,0,0,5.44,5.76,22.515,22.515,0,0,0,7.1,2.752A36.833,36.833,0,0,0,445.283,148.194Zm-8.768-13.184a7.271,7.271,0,0,1-3.328-2.56,6.794,6.794,0,0,1-1.152-3.968,7.4,7.4,0,0,1,3.264-6.4,21.682,21.682,0,0,1,8.9-3.264,76.7,76.7,0,0,1,12.8-.96v3.712a15.231,15.231,0,0,1-1.088,5.76,13.013,13.013,0,0,1-3.008,4.544,13.926,13.926,0,0,1-4.736,2.944,17.65,17.65,0,0,1-6.4,1.088A13.756,13.756,0,0,1,436.515,135.01Zm73.47,12.8V114.146a28.327,28.327,0,0,1,.96-7.808,14.3,14.3,0,0,1,3.008-5.632,12.185,12.185,0,0,1,5.056-3.392,20.5,20.5,0,0,1,6.976-1.088h5.5V80.1a19.231,19.231,0,0,0-2.688-.832,16.413,16.413,0,0,0-3.968-.448,14.833,14.833,0,0,0-7.168,1.664,15.5,15.5,0,0,0-5.12,4.416,25.364,25.364,0,0,0-3.328,6.08h-0.9l-1.408-10.5h-14.72V147.81h17.792Zm79.423-2.24a25.331,25.331,0,0,0,11.584-11.648q3.966-7.872,3.968-19.776,0-12.159-3.968-19.9a25.466,25.466,0,0,0-11.584-11.52q-7.617-3.774-18.88-3.776-11.01,0-18.688,3.776a25.385,25.385,0,0,0-11.648,11.52q-3.969,7.746-3.968,19.9,0,11.9,3.968,19.776A25.25,25.25,0,0,0,551.84,145.57q7.68,3.774,18.688,3.776Q581.79,149.346,589.408,145.57Zm-28.16-12.224a12.677,12.677,0,0,1-5.184-6.656,31.784,31.784,0,0,1-1.664-11.008V112.61a31.792,31.792,0,0,1,1.664-11.008,13.021,13.021,0,0,1,5.184-6.72,17.085,17.085,0,0,1,9.28-2.24q5.886,0,9.408,2.24a13.042,13.042,0,0,1,5.184,6.72,31.84,31.84,0,0,1,1.664,11.008v3.072a31.832,31.832,0,0,1-1.664,11.008,12.7,12.7,0,0,1-5.184,6.656q-3.522,2.178-9.408,2.176A17.458,17.458,0,0,1,561.248,133.346Z" transform="translate(-0.281 -0.813)"/>
  <path class="cls-1" d="M140.528,103.608c0,6.932-.015,13.864.022,20.8a1.364,1.364,0,0,1-.912,1.426Q117.657,137,95.7,148.235a3.08,3.08,0,0,1-3.142.017c-12.21-6.237-24.455-12.4-36.689-18.594-2.583-1.307-5.148-2.65-7.743-3.932a1.364,1.364,0,0,1-.914-1.43q0.046-20.682.023-41.365c0-1.226.007-1.233,1.071-.688q19.548,10.014,39.1,20.031c2.511,1.286,5.046,2.525,7.54,3.843a1.743,1.743,0,0,0,1.87-.1q18.224-10.25,36.456-20.482,3.079-1.729,6.159-3.457c1.027-.573,1.1-0.526,1.1.626v20.907h0Zm-39.723,84.586v-1.256c0-9.742.01-19.484-.02-29.225a1.639,1.639,0,0,1,.95-1.665q19.8-11.347,39.573-22.755a1.371,1.371,0,0,1,1.605-.1q12.928,7.554,25.9,15.041c0.159,0.092.311,0.2,0.595,0.377Zm-12.345-.047L19.909,148.6c2.97-1.712,5.848-3.368,8.724-5.028q8.886-5.127,17.762-10.273a1.557,1.557,0,0,1,1.8,0q19.7,11.41,39.419,22.774a1.384,1.384,0,0,1,.941,1.327c-0.035,10.076-.023,20.152-0.026,30.228C88.532,187.731,88.5,187.841,88.46,188.147Zm87.108-126.3v74.671c0,1.417,0,1.419-1.239.713Q161.67,129.993,149,122.77a1.377,1.377,0,0,1-.832-1.381q0.034-21.692.01-43.382a1.18,1.18,0,0,1,.652-1.247q13.082-7.278,26.129-14.616C175.087,62.073,175.218,62.016,175.568,61.843ZM13.842,64.436c5.291,2.716,10.5,5.394,15.716,8.067,3.591,1.842,7.179,3.691,10.785,5.5a1.289,1.289,0,0,1,.856,1.338q-0.038,21.022-.01,42.044a1.209,1.209,0,0,1-.639,1.266q-13.169,7.48-26.31,15.009a3.364,3.364,0,0,1-.4.154V64.436Z" transform="translate(-0.281 -0.813)"/>
  <path id="Shape_1_copy" data-name="Shape 1 copy" class="cls-2" d="M8.109,53.955c0,4.2.006,8.166,0,12.133q-0.011,5.9-.044,11.8A1.1,1.1,0,0,0,8.5,79.05c2.446,1.526,3.582,3.934,4.339,6.583a30.292,30.292,0,0,1,.644,3.642,1.092,1.092,0,0,1-.745,1.4A14.884,14.884,0,0,1,.958,90.482a0.905,0.905,0,0,1-.673-1.016c0.736-6.053,2.75-8.331,2.75-8.331,1.018-1.168,1.527-1.752,1.608-1.809a1.12,1.12,0,0,0,.41-0.456A2.04,2.04,0,0,0,5.165,78.5a2.947,2.947,0,0,0,.056-0.363A4.942,4.942,0,0,0,5.227,77.3Q5.234,65.651,5.241,54V52.625c-0.371-.253-0.772-0.508-1.2-0.757q-0.306-.177-0.6-0.335c3.85-2.184,7.6-4.321,11.358-6.441q39-22,78-44.007a1.548,1.548,0,0,1,1.713-.041q44.724,23.828,89.469,47.614a0.9,0.9,0,0,1,.745.584,0.932,0.932,0,0,1-.795.678Q166.543,59.67,149.145,69.4,123.12,83.975,97.11,98.579a2.13,2.13,0,0,1-2.324.039Q52.616,76.861,10.416,55.16C9.724,54.8,9.037,54.44,8.109,53.955Z" transform="translate(-0.281 -0.813)"/>
</svg>
